<?xml version="1.0" encoding="UTF-8"?>
<svg width="512" height="512" viewBox="0 0 512 512" fill="none" xmlns="http://www.w3.org/2000/svg">
    <!-- Background -->
    <rect width="512" height="512" rx="64" fill="#512BD4"/>
    
    <!-- Music note icon -->
    <g transform="translate(156, 156)">
        <!-- Note stem -->
        <rect x="160" y="40" width="8" height="120" fill="white" rx="4"/>
        
        <!-- Note head -->
        <ellipse cx="152" cy="152" rx="20" ry="12" fill="white"/>
        
        <!-- Musical staff lines -->
        <line x1="80" y1="120" x2="200" y2="120" stroke="white" stroke-width="2" opacity="0.6"/>
        <line x1="80" y1="140" x2="200" y2="140" stroke="white" stroke-width="2" opacity="0.6"/>
        <line x1="80" y1="160" x2="200" y2="160" stroke="white" stroke-width="2" opacity="0.6"/>
        <line x1="80" y1="180" x2="200" y2="180" stroke="white" stroke-width="2" opacity="0.6"/>
        
        <!-- Treble clef -->
        <path d="M100 100C100 90 110 80 120 80C130 80 140 90 140 100C140 110 130 120 120 120C110 120 100 110 100 100Z" fill="white" opacity="0.8"/>
        <path d="M120 120C120 130 125 140 130 150C135 160 140 170 140 180C140 190 135 200 125 200C115 200 110 190 110 180" stroke="white" stroke-width="3" fill="none" opacity="0.8"/>
    </g>
    
    <!-- App title -->
    <text x="256" y="380" text-anchor="middle" fill="white" font-family="Arial, sans-serif" font-size="32" font-weight="bold">COG</text>
    <text x="256" y="420" text-anchor="middle" fill="white" font-family="Arial, sans-serif" font-size="24" font-weight="normal">Lyrics</text>
</svg>